<?xml version="1.0" encoding="utf-8"?>
<!-- Generator: Adobe Illustrator 26.5.0, SVG Export Plug-In . SVG Version: 6.00 Build 0)  -->
<svg version="1.1" id="Layer_1" xmlns="http://www.w3.org/2000/svg" xmlns:xlink="http://www.w3.org/1999/xlink" x="0px" y="0px"
	 viewBox="0 0 595.28 259" style="enable-background:new 0 0 595.28 259;" xml:space="preserve">
<style type="text/css">
	.st0{fill-rule:evenodd;clip-rule:evenodd;fill:#C5A572;}
	.st1{fill-rule:evenodd;clip-rule:evenodd;fill:#FFFFFF;}
</style>
<path class="st0" d="M293.22,44.44l5.62,4.17c1.27-0.33,4.88-3.25,6.28-4.17c-0.48-0.63-5.02-3.88-5.95-4.49
	C297.91,40.6,293.92,43.42,293.22,44.44"/>
<g>
	<path class="st0" d="M262.81,62.71c-6.95,0-10.03,0.14-17-1.78c-2.2-0.61-3.29-0.86-5.29-1.6c-1.27-0.47-4.05-1.65-5.15-1.74
		l5.74,20.71c0.27,1.11,0.32,2.37,1.53,2.37h53.86c1.63,0,0.99-3.9,0.99-7.05V49.25c-1.03,0.23-5.87,3.68-7.2,4.55
		C283.3,58.38,272.07,62.71,262.81,62.71"/>
	<path class="st0" d="M356.34,80.65c0.18-2.11,5.91-21.29,5.95-23.07l-7.23,2.6c-8.97,2.66-17.23,3.46-26.77,1.84
		c-2.73-0.46-5.67-1.31-8.02-2.15c-1.29-0.46-2.41-0.83-3.58-1.34c-4.58-2.01-8.95-4.32-12.99-7.27c-1.01-0.74-1.98-1.7-3.21-2.02
		v26.28c0,1.28-0.48,4.41,0.48,4.98C301.67,80.92,352.79,80.65,356.34,80.65"/>
	<path class="st0" d="M206.64,71.36c-8.84,0-16.14-2.84-18.17-2.88c0.61,1.11,1.18,1.88,1.92,2.95l6.01,8.91h42.63
		c-0.49-0.98-1.11-3.88-1.51-5.26l-2.92-10.95c-0.57-1.93-1.06-3.69-1.51-5.58c-1.05,0.27-0.71,0.32-1.29,0.99
		c-0.46,0.53-0.73,0.79-1.21,1.39C225.36,67.41,215.46,71.36,206.64,71.36"/>
	<path class="st0" d="M358.98,80.33h42.96c0.38-1.36,6.29-9.45,7.6-11.86c-2.85,0.23-7.4,2.88-18.51,2.88
		c-6.01,0-11.69-1.73-15.52-3.86c-1.86-1.04-4.2-2.58-5.72-4.07c-1.74-1.7-2.06-1.79-3.49-3.67l-1.38-1.22
		c-0.88,3.67-1.99,7.37-2.91,10.96L358.98,80.33z"/>
	<path class="st0" d="M196.39,84.18v0.96h205.22c0-1.3,0.18-1.92-0.99-1.92H197.38C196.62,83.22,196.39,83.44,196.39,84.18"/>
	<path class="st0" d="M228.78,53.09c1.21,0.31,3.2,2.17,4.3,2.88c1.11-0.29,4.19-2.62,4.63-3.2c-0.57-0.82-1.2-1.21-2.08-1.83
		c-0.45-0.32-0.7-0.49-1.14-0.82c-0.42-0.32-0.74-0.59-1.08-0.87C232.16,50.05,229.17,51.67,228.78,53.09"/>
	<path class="st0" d="M360.3,52.77c0.6,0.8,3.28,2.68,4.3,3.21c2.14-1.1,3.47-2.58,4.63-2.89c-0.29-1.07-0.38-0.77-1.98-1.92
		c-0.52-0.38-1.95-1.6-2.65-1.6C363.85,49.57,360.74,52.14,360.3,52.77"/>
	<path class="st0" d="M184.16,65.91c1.45,0.33,2.72,1.25,4.3,1.6c0.67-0.97,1.98-1.99,2.31-3.2c-1.18-0.55-3.34-1.57-4.63-1.6
		C185.76,64.12,184.55,64.5,184.16,65.91"/>
	<path class="st0" d="M407.23,64.31c0.33,1.21,1.64,2.23,2.31,3.21c1.3-0.29,3.16-1.07,4.3-1.6c-0.72-1.32-1.51-2.05-2.31-3.2
		C409.95,63.06,408.68,63.98,407.23,64.31"/>
	<path class="st1" d="M218.66,181.77c0.1-24.9-0.45-48.46-0.34-73.35c2.09-7.65,26.97-9.27,28.12,0.96c0,24.9,0.36,48.66,0.36,73.56
		c-1.2,5.3-6.02,7.14-14.45,7.06C223.42,189.9,218.24,187.22,218.66,181.77 M227.9,198.71c8.41,0,17.32,0.75,24.23-3.29
		c3.2-1.87,7.49-5.78,7.49-10.5v-76.11c0-5.45-2.97-8.85-6.25-11.18c-3.15-2.24-8.05-4.2-13.44-4.2h-14.77
		c-7.27,0-15.27,3.58-18.24,9.36c-1.37,2.66-1.45,4.04-1.45,7.88c0,12.42,0.27,23.99,0.27,36.33c0,12.2-0.01,24.41-0.01,36.61
		c0,5.58,3.64,9.17,7.12,11.4C216.69,197.46,221.54,198.71,227.9,198.71"/>
	<path class="st1" d="M286.85,102.23h15.69c6.67,0,12.13,5.29,12.13,11.76v15.3c0,6.47-5.46,11.76-12.13,11.76h-15.69V102.23z
		 M273.84,184.39c0,4.83,0.27,8.71,0.27,13.53h13.67v-48c8.49,0,6.21-1.22,9.75,5.66c1.08,2.1,2.06,3.99,3.1,6.01
		c1.03,1.99,1.98,4.1,3.01,6.1l9.39,18.21c0.97,1.89,5.92,11.13,6.2,12.29h15.04c-2.68-4.92-7.09-13.74-9.83-18.31
		c-1.17-1.95-2.11-4.14-3.28-6.1l-3.3-6.08c-0.54-1-0.99-1.92-1.55-3.01c-0.62-1.21-1.16-2.02-1.74-3.09l-3.28-6.1
		c-0.54-1-0.99-1.92-1.55-3.01c-0.62-1.22-1.15-2.02-1.73-3.09c3.79,0,10.26-2.04,13.29-4.35c3.41-2.6,5.58-6.32,5.58-12.09v-20.95
		c0-9.52-5.87-14.34-15.15-16.6c-4.83-1.17-9.02-1.17-14.93-1.17c-2.98,0-4.92-0.27-7.93-0.26h-15.04V184.39z"/>
	<path class="st1" d="M341.39,96.34v77.7c0,6.99-0.11,13.57,4.98,18.51c7.31,7.09,20.74,5.89,30.84,5.89c4.47,0,9.48-2,12.26-3.76
		c9.19-5.82,7.43-15.2,7.43-23.55v-7.69c0-2.89-0.29-5.1-0.28-7.69c0.06-10.66-0.27-20.48-0.27-31.03l-0.27-23.07
		c0-2.9-0.27-5.07-0.27-7.69l-12.58,2.65v81.41c0,6.33,0.12,10.76-9.06,11.63c-5.29,0.5-13.66,0.14-17.39-2.95
		c-2.75-2.28-2.26-6.54-2.26-11.33V93.69c-1.03,0.08-1.98,0.42-3.17,0.64L341.39,96.34z"/>
	<path class="st1" d="M411.39,111.19v6.1c0,3.83,0.84,7.07,1.88,9.85c2.07,5.54,5.76,9.88,9.95,13.95
		c8.43,8.18,12.03,9.61,20.29,15.86c2.53,1.92,4.23,3.54,6.13,5.99c1.41,1.81,3.59,5.43,3.59,8.45v11.67c0,2.05-1.5,4.32-2.84,5.2
		c-3.74,2.45-11.72,1.7-17.12,1.7c-4.91,0-9.06-3.74-9.03-9.28c0.03-6.01,0.01-12.03,0.01-18.04c-1.25,0.1-7.69,2.36-9.74,3.02
		c-0.98,0.32-2.84,0.56-2.84,1.49v17.24c0,2.07,1.08,4.22,1.96,5.52c3.02,4.45,10.15,7.74,15.54,7.74h21.88
		c3.34,0,8.98-2.57,10.98-5c4.61-5.57,3.78-12.97,3.78-20.2c0-6.73-3.71-13.18-7.18-16.64c-1.52-1.51-0.36-0.92-2.98-2.95
		c-0.62-0.48-0.94-0.91-1.53-1.43l-21.24-18.12c-0.79-0.59-0.93-0.83-1.6-1.37c-0.97-0.77-2.93-1.04-4.76-4.4
		c-2.74-5-2.27-10.86-2.27-16.62c0-10.46,10.18-9.02,18.6-9.02c4.55,0,9.84,2.35,9.84,6.63v20.42c1.32-0.03,2.24-0.69,3.44-1.18
		l8.38-3.55c0.71-0.27,1.31-0.28,1.31-1.11v-17.5c0-2.52-1.21-4.66-2.38-6.18c-1.32-1.71-2.82-2.76-4.91-3.73
		c-7.08-3.27-18.26-2.56-26.9-2.56c-5.31,0-10.91,1.66-14.77,4.5C413.32,100.26,411.39,105.15,411.39,111.19"/>
	<path class="st1" d="M164.46,141.16c-0.12-1.39-12.9-32.57-14.05-35.7l-4.82-12.03c-1.71,0.14-11.03,3.4-13.13,3.45
		c0.13,1.47,17.07,39.21,19.32,44.11c1.15,2.51,2.12,4.68,3.22,7.22c0.52,1.21,3.16,6.72,3.16,7.54v41.9h12.58v-41.9
		c0-1.41,2.22-5.99,2.89-7.54c6.27-14.48,12.39-29.47,18.79-43.83l3.21-7.5l-9.4-2.82c-1.13-0.32-2.03-0.8-3.18-0.89l-2.29,6
		c-0.38,1.08-0.68,1.81-1.11,2.9l-13.79,36.22C165.42,139.45,165.37,140.52,164.46,141.16"/>
</g>
</svg>
